<svg width="400" height="400" viewBox="0 0 400 400" fill="none" xmlns="http://www.w3.org/2000/svg">
<path d="M57 116.502C57 85.1109 78.4909 57.8006 109.002 50.4189V50.4189C115.63 48.8154 122.461 48.2181 129.266 48.647L216.435 54.1409C295.457 59.1213 357 124.665 357 203.844V213C357 295.843 289.843 363 207 363V363C124.157 363 57 295.843 57 213V116.502Z" fill="url(#paint0_linear_13_8)"/>
<g filter="url(#filter0_d_13_8)">
<path d="M217.65 159.075C222.879 161.326 225.394 164.049 225.194 167.242C225.129 168.28 224.527 170.207 223.389 173.021L196.231 238.05C196.036 238.599 195.714 239.26 195.265 240.034C194.815 240.807 193.67 241.817 191.828 243.065C190.072 244.237 187.996 244.748 185.6 244.598C183.285 244.453 181.289 243.687 179.612 242.3C178.021 240.837 176.985 239.45 176.507 238.137L165.082 195.94C154.579 221.574 149.233 234.625 149.043 235.094C148.853 235.563 148.452 236.22 147.838 237.063C147.224 237.906 146.535 238.665 145.771 239.338C143.82 241.059 141.567 241.84 139.012 241.68C136.457 241.52 134.378 240.789 132.777 239.486C131.255 238.188 130.252 236.923 129.768 235.69L129.042 233.841L110.091 165.924C109.378 163.234 109.061 161.25 109.141 159.973C109.342 156.779 112.174 154.432 117.638 152.93C120.004 152.277 122.105 152.008 123.941 152.123C125.857 152.243 127.255 152.971 128.133 154.309C129.091 155.652 129.886 157.665 130.52 160.35L141.188 201.177L156.711 162.592C158.039 159.308 160.22 157.121 163.254 156.028C164.566 155.549 166.221 155.372 168.217 155.497C170.293 155.627 172.166 156.426 173.838 157.893C175.515 159.281 176.552 160.628 176.951 161.936L188.121 204.357L203.816 164.941C204.57 163.145 205.174 161.82 205.628 160.967C206.082 160.114 206.853 159.32 207.941 158.587C209.114 157.779 210.499 157.424 212.096 157.525C213.693 157.625 215.544 158.141 217.65 159.075ZM233.26 159.451L299.849 163.623C302.404 163.783 304.26 164.22 305.418 164.933C306.581 165.567 307.322 166.535 307.641 167.838C307.96 169.14 308.055 170.83 307.925 172.906C307.795 174.982 307.49 176.646 307.011 177.898C306.536 179.071 305.805 179.867 304.817 180.286C303.335 180.914 301.276 181.146 298.642 180.981L275.766 179.548L271.993 239.79C271.878 241.627 271.713 242.979 271.498 243.847C271.363 244.72 270.939 245.736 270.225 246.893C269.596 247.976 268.508 248.71 266.961 249.094C265.414 249.478 263.403 249.592 260.928 249.437C258.453 249.282 256.472 248.918 254.985 248.344C253.578 247.774 252.59 246.911 252.021 245.753C251.537 244.52 251.243 243.46 251.138 242.572C251.118 241.609 251.166 240.209 251.281 238.372L255.047 178.25L232.052 176.81C229.497 176.65 227.638 176.253 226.476 175.619C225.318 174.905 224.58 173.897 224.26 172.595C223.941 171.292 223.847 169.603 223.977 167.527C224.107 165.451 224.409 163.827 224.883 162.654C225.362 161.402 226.096 160.566 227.084 160.147C228.566 159.518 230.625 159.286 233.26 159.451Z" fill="white"/>
</g>
<defs>
<filter id="filter0_d_13_8" x="100.153" y="151.11" width="212.357" height="108.96" filterUnits="userSpaceOnUse" color-interpolation-filters="sRGB">
<feFlood flood-opacity="0" result="BackgroundImageFix"/>
<feColorMatrix in="SourceAlpha" type="matrix" values="0 0 0 0 0 0 0 0 0 0 0 0 0 0 0 0 0 0 127 0" result="hardAlpha"/>
<feOffset dy="4"/>
<feGaussianBlur stdDeviation="2"/>
<feComposite in2="hardAlpha" operator="out"/>
<feColorMatrix type="matrix" values="0 0 0 0 0 0 0 0 0 0 0 0 0 0 0 0 0 0 0.25 0"/>
<feBlend mode="normal" in2="BackgroundImageFix" result="effect1_dropShadow_13_8"/>
<feBlend mode="normal" in="SourceGraphic" in2="effect1_dropShadow_13_8" result="shape"/>
</filter>
<linearGradient id="paint0_linear_13_8" x1="65.5" y1="100" x2="329.5" y2="303.5" gradientUnits="userSpaceOnUse">
<stop stop-color="#FFE53B"/>
<stop offset="0.755208" stop-color="#FD3838"/>
</linearGradient>
</defs>
</svg>
